<svg width="352" height="527" fill="none" xmlns="http://www.w3.org/2000/svg"><path d="M189.09 426.863h-27.144c-19.116 0-34.652 14.569-34.652 32.495v35.147c0 17.926 15.536 32.494 34.652 32.494h27.144c19.117 0 34.652-14.568 34.652-32.494v-35.147c0-17.98-15.535-32.495-34.652-32.495zM14.472 154.743l44.365 5.847c14.072 1.841 27.428-6.714 32.494-20.737 6.397-17.705 15.301-31.674 26.712-41.853 16.171-14.402 36.281-21.657 60.331-21.657 24.921 0 44.775 6.93 59.513 20.737 14.737 13.86 22.055 30.428 22.055 49.866 0 13.969-4.145 26.747-12.435 38.334-5.373 7.363-21.901 22.848-49.483 46.509-27.633 23.661-46.003 44.993-55.214 63.943-9.415 19.384-12.69 40.879-13.509 62.428-.716 18.463 13.202 33.84 30.703 33.84h25.074c15.966 0 29.168-12.94 30.601-29.725 1.023-12.073 2.917-21.224 5.783-27.45 4.809-10.667 17.244-24.744 37.201-42.286 38.634-33.841 63.81-60.588 75.632-80.296C346.064 192.589 352 171.744 352 149.707c0-39.795-16.017-74.718-48.101-104.714C271.865 14.998 228.676 0 174.434 0c-51.581 0-93.183 14.781-124.91 44.398C22.507 69.628 6.08 99.516.298 134.006c-1.791 10.07 4.708 19.491 14.175 20.737z" fill="#fff"/></svg>