<svg width="61" height="61" fill="none" xmlns="http://www.w3.org/2000/svg"><path d="M52.066 8.933C46.306 3.173 38.646 0 30.5 0 22.353 0 14.694 3.172 8.934 8.933 3.173 14.693 0 22.353 0 30.5s3.173 15.806 8.934 21.567C14.694 57.827 22.354 61 30.5 61c8.147 0 15.806-3.172 21.567-8.933C57.827 46.307 61 38.647 61 30.5s-3.173-15.806-8.934-21.567zM30.5 11.83c10.295 0 18.67 8.376 18.67 18.67 0 10.294-8.375 18.67-18.67 18.67-10.294 0-18.67-8.376-18.67-18.67 0-10.294 8.376-18.67 18.67-18.67zm19.606 38.276c-5.237 5.237-12.2 8.121-19.606 8.121-7.406 0-14.369-2.884-19.606-8.12-5.237-5.237-8.121-12.2-8.121-19.607h6.284c0 11.823 9.62 21.442 21.443 21.442 11.824 0 21.442-9.619 21.442-21.442 0-11.824-9.619-21.443-21.442-21.443-.702 0-1.395.035-2.08.101V2.85a28.31 28.31 0 012.08-.076c7.406 0 14.369 2.884 19.606 8.12 5.237 5.238 8.121 12.2 8.121 19.607s-2.884 14.37-8.12 19.606z" fill="#fff"/></svg>