<svg width="57" height="60" fill="none" xmlns="http://www.w3.org/2000/svg"><path d="M4.835 25.077a4.791 4.791 0 004.417-2.937c3.081-7.34 10.325-12.513 18.77-12.513 4.654 0 8.922 1.595 12.343 4.241l-2.682.416a2.091 2.091 0 00-.537 3.975l14.746 6.634a2.095 2.095 0 002.951-1.898l.076-16.248a2.09 2.09 0 00-3.833-1.17l-2.032 3.055C43.634 3.298 36.209 0 28.022 0 15.608 0 4.935 7.581.382 18.356a4.835 4.835 0 004.452 6.721zM55.24 37.09a4.836 4.836 0 00-4.03-2.167 4.791 4.791 0 00-4.418 2.937c-3.081 7.34-10.325 12.513-18.77 12.513-4.655 0-8.922-1.595-12.343-4.241l2.682-.415a2.092 2.092 0 00.537-3.976L4.152 35.107a2.095 2.095 0 00-1.991.149 2.096 2.096 0 00-.96 1.75l-.077 16.247a2.09 2.09 0 003.834 1.17l2.032-3.055C12.41 56.702 19.835 60 28.022 60c12.414 0 23.087-7.58 27.64-18.356a4.834 4.834 0 00-.422-4.555z" fill="#fff"/></svg>